<svg xmlns="http://www.w3.org/2000/svg" viewBox="0 0 64 64">
  <rect width="64" height="64" rx="14" fill="#e8463d"/>
  <g stroke="#1b2127" stroke-width="3" stroke-linejoin="round" stroke-linecap="round">
    <path d="M8 33 L11 6 L29 18 Z" fill="#fff"/>
    <path d="M56 33 L53 6 L35 18 Z" fill="#fff"/>
    <ellipse cx="32" cy="38" rx="25" ry="20.5" fill="#fff"/>
  </g>
  <path d="M13.5 24 L14.8 12.5 L23.5 18.5 Z M50.5 24 L49.2 12.5 L40.5 18.5 Z" fill="#f59aaa"/>
  <path d="M26.5 21.5 q1.2 3.5 .3 6.5 M32 19.8 v7.6 M37.5 21.5 q-1.2 3.5 -.3 6.5" stroke="#8d969e" stroke-width="2.6" fill="none" stroke-linecap="round"/>
  <g stroke="#1b2127" stroke-width="3.2" fill="none" stroke-linecap="round">
    <path d="M16.5 36.5 q5.5 3.2 11 0"/>
    <path d="M36.5 36.5 q5.5 3.2 11 0"/>
  </g>
  <circle cx="18.5" cy="44" r="3.4" fill="#f59aaa" opacity=".75"/>
  <circle cx="45.5" cy="44" r="3.4" fill="#f59aaa" opacity=".75"/>
  <path d="M29 42.2 h6 l-3 3.4 z" fill="#ee7f92" stroke="#1b2127" stroke-width="1.4" stroke-linejoin="round"/>
  <path d="M32 45.6 v1.6 q-2.2 2.6 -4.8 1.1 M32 47.2 q2.2 2.6 4.8 1.1" stroke="#1b2127" stroke-width="1.9" fill="none" stroke-linecap="round"/>
</svg>
